<?xml version="1.0" encoding="UTF-8" standalone="no"?><!DOCTYPE svg PUBLIC "-//W3C//DTD SVG 1.1//EN" "http://www.w3.org/Graphics/SVG/1.1/DTD/svg11.dtd"><svg width="100%" height="100%" viewBox="0 0 6825 4557" version="1.1" xmlns="http://www.w3.org/2000/svg" xmlns:xlink="http://www.w3.org/1999/xlink" xml:space="preserve" xmlns:serif="http://www.serif.com/" style="fill-rule:evenodd;clip-rule:evenodd;stroke-linejoin:round;stroke-miterlimit:2;"><g><path d="M3918.839,755.473c-8.498,148.412 -184.797,433.416 -967.527,2075.957c-336.276,705.667 -324.72,765.835 -505.863,793.773c-118.615,18.294 -528.712,50.199 -693.003,-44.692c-93.042,-53.739 -131.209,-64.339 -321.457,-568.13c-215.614,-570.961 -212.445,-571.785 -435.912,-1139.567c-146.355,-371.857 -141.832,-373.044 -289.534,-744.31c-133.949,-336.694 -152.888,-440.826 -160.141,-480.706c-7.696,-42.314 -9.81,-51.158 9.142,-51.237c935.668,-3.917 993.059,2.882 1075.426,199.518c228.299,545.023 610.681,1683.458 679.057,1710.598c27.223,10.806 59.189,-54.306 110.411,-175.612c163.927,-388.22 137.137,-398.149 322.086,-854.467c187.804,-463.361 246.595,-801.266 414.643,-851.464c92.395,-27.599 536.208,-41.479 649.047,-4.677c108.987,35.546 112.966,120.914 113.623,135.016Z" style="fill:rgb(59,130,246);fill-opacity:1;"/><path d="M4838.084,3637.505c-65.83,6.812 -588.887,35.903 -732.119,-51.627c-48.646,-29.728 -55.531,-29.626 -202.933,-364.924c-9.729,-22.131 -381.979,-898.346 -383.879,-908.047c-1.953,-9.965 401.946,-811.528 514.214,-985.944c16.78,-26.069 28.26,-42.972 40.586,-22.651c56.475,93.1 34.644,139.726 344.859,868.388c12.15,28.539 157.056,364.517 193.009,374.342c61.422,16.784 317.728,-804.788 620.345,-1543.635c142.617,-348.202 180.321,-386.176 277.463,-390.785c91.328,-4.333 110.008,-15.511 603.996,-12.588c194.977,1.154 182.158,40.88 182.009,42.586c-12.979,147.831 -454.626,1235.095 -564.974,1546.635c-31.741,89.612 -342.349,908.097 -415.342,1082.291c-63.312,151.091 -102.516,344.15 -477.235,365.959Z" style="fill:rgb(59,130,246);fill-opacity:1;"/></g></svg>