<?xml version="1.0" encoding="UTF-8" standalone="no"?><!DOCTYPE svg PUBLIC "-//W3C//DTD SVG 1.1//EN" "http://www.w3.org/Graphics/SVG/1.1/DTD/svg11.dtd"><svg width="100%" height="100%" viewBox="0 0 4419 3663" version="1.1" xmlns="http://www.w3.org/2000/svg" xmlns:xlink="http://www.w3.org/1999/xlink" xml:space="preserve" xmlns:serif="http://www.serif.com/" style="fill-rule:evenodd;clip-rule:evenodd;stroke-linejoin:round;stroke-miterlimit:2;"><g id="Background"><path d="M4259.237,3661.861l-4259.237,0c-5.461,-6.453 -0,-7.804 0,-105.668l0,-3556.193c11.755,-4.521 12.267,0 157.43,0l4259.232,0c4.988,9.267 0,10.083 0,131.551l0,3530.31c-11.755,4.52 -12.267,0 -157.426,0Z" style="fill:#fdfdfd;"/><path d="M484.807,3306.489c-55.233,-52.381 -130.977,-125.577 -196.611,-272.717c-49.97,-112.025 -67.904,-245.023 -69.271,-279.871c-5.018,-127.912 -0.764,-127.928 -0.707,-1600.133c0.007,-168.753 -8.748,-169.125 12.192,-336.475c21.679,-173.253 145.756,-371.09 272.542,-465.138c188.041,-139.486 332.957,-158.728 418.018,-172.35c125.543,-20.105 126.48,-9.951 2311.738,-11.93c106.459,-0.096 338.179,-17.632 560.288,89.717c423.357,204.616 434.403,619.239 437.571,645.838c4.335,36.406 1.923,1194.559 1.707,1298.434c-1.097,526.909 7.061,586.542 -33.947,728.753c-13.843,48.007 -99.09,343.624 -396.638,482.411c-27.714,12.927 -190.9,89.043 -370.625,93.606c-58.719,1.491 -2082.031,0.791 -2109.073,0.693c-296.582,-1.072 -556.452,31.239 -837.182,-200.837Z" style="fill:#202c3a;"/><path d="M2456.295,1081.067c4.676,1.187 44.229,11.229 54.034,26.771c21.447,33.997 11.905,39.26 -55.663,196.134c-33.304,77.321 -37.296,75.471 -425.722,962.403c-207.092,472.874 -219.101,499.291 -266.825,514.116c-59.344,18.434 -323.336,10.735 -345.236,7.852c-23.575,-3.103 -138.525,5.136 -202.683,-142.248c-101.325,-232.765 -504.895,-1279.161 -563.653,-1436.7c-34.88,-93.519 -57.428,-123.477 -27.544,-133.945c4.228,-1.481 461.555,-3.967 478.79,1.421c53.336,16.675 100.592,18.64 138.397,124.269c13.948,38.971 16.295,38.025 184.379,483.432c13.532,35.858 160.728,425.913 170.411,447.748c6.423,14.484 36.923,39.86 49.627,8.837c1.57,-3.835 104.024,-293.323 113.053,-318.835c239.691,-677.26 240.182,-679.109 267.604,-707.143c42.38,-43.326 68.844,-48.515 297.344,-42.456c88.284,2.341 123.065,6.939 133.688,8.343Z" style="fill:#fdfdfd;"/><path d="M3318.914,1074.923c22.409,-1.017 76.363,-3.467 280.395,-1.522c200.014,1.907 216.896,-7.002 217.836,24.345c0.418,13.927 -85.972,257.619 -93.863,279.878c-12.07,34.047 -11.785,33.979 -146.929,426.959c-224.07,651.562 -223.667,651.646 -243.348,708.231c-72.887,209.562 -91.064,279.664 -324.583,280.021c-347.247,0.531 -405.392,6.829 -449.376,-64.275c-17.718,-28.643 -21.331,-34.483 -169.562,-385.339c-102.556,-242.745 -102.23,-242.726 -109.863,-266.479c-11.823,-36.793 -6.048,-38.514 40.28,-137.267c67.249,-143.348 68.234,-142.51 135.659,-285.718c96.91,-205.835 99.395,-228.146 121.789,-211.266c10.442,7.871 181.395,459.871 246.391,621.036c18.7,46.369 44.228,128.472 76.688,95.046c8.202,-8.446 165.074,-519.757 205.249,-638.769c107.739,-319.163 113.023,-433.67 213.236,-444.88Z" style="fill:#fdfdfd;"/></g></svg>